<svg width="202" height="70" viewBox="0 0 202 70" fill="none" xmlns="http://www.w3.org/2000/svg">
<path d="M2.84151 56.3153C3.24048 55.8429 3.62973 55.3706 4.02871 54.9079C6.19876 52.4208 8.98188 51.6207 12.1737 52.1316C14.0421 52.4304 15.3558 53.5294 16.037 55.3127C16.397 56.2574 16.4068 56.2574 17.0685 55.467C18.2752 53.9921 19.7154 52.8064 21.5838 52.2762C23.5689 51.7075 25.5541 51.7364 27.3933 52.7871C28.8238 53.6065 29.758 54.7825 29.7969 56.4888C29.8455 58.6673 29.8553 60.8459 29.865 63.0245C29.865 65.0681 29.8455 67.1021 29.865 69.1458C29.865 69.5603 29.758 69.7241 29.3201 69.7049C28.6973 69.6759 28.0647 69.6759 27.4419 69.7049C27.0527 69.7241 26.9846 69.5699 26.9846 69.2132C26.9846 65.849 26.9846 62.4943 26.9846 59.1301C26.9846 58.3492 26.9262 57.5684 26.6148 56.8358C26.1477 55.7369 25.3497 55.0042 24.1139 54.8018C20.0365 54.1367 16.5917 56.7876 16.397 60.8652C16.2608 63.6029 16.3095 66.3406 16.3095 69.0783C16.3095 69.5988 16.1343 69.7338 15.6477 69.6952C15.1223 69.6567 14.5968 69.6567 14.0713 69.6952C13.6042 69.7338 13.4874 69.5603 13.4874 69.1265C13.4972 66.6298 13.4874 64.1234 13.4874 61.6268C13.4874 60.4507 13.5458 59.265 13.3998 58.089C13.069 55.4477 11.512 54.5897 9.2057 54.7247C6.86048 54.8597 5.05048 56.0164 3.74651 57.954C3.16263 58.8216 2.95828 59.7856 2.95828 60.7977C2.95828 63.5547 2.94855 66.3213 2.97774 69.0783C2.97774 69.5988 2.82204 69.7241 2.32575 69.6952C1.72242 69.6567 1.10935 69.6567 0.506022 69.6952C0.0875806 69.7145 0.00973118 69.5603 0.00973118 69.1843C0.0194624 66.4466 0.00973118 63.7089 0.00973118 60.9616C0.00973118 58.2818 0.0194624 55.6019 0 52.9221C0 52.4979 0.116774 52.363 0.535215 52.3822C1.0607 52.4112 1.58618 52.4015 2.11167 52.3822C2.45226 52.3726 2.56903 52.5076 2.57876 52.8353C2.60796 53.7993 2.64688 54.7536 2.69554 55.708C2.69554 55.9007 2.61769 56.1128 2.83177 56.296L2.84151 56.3153Z" fill="white"/>
<path d="M181.827 25.8443C185.846 25.8443 189.077 29.1218 189.057 33.1705C189.038 37.1228 185.778 40.1882 181.603 40.1786C177.682 40.1786 174.655 37.0071 174.626 32.9199C174.587 29.0543 178.139 25.6708 181.827 25.8443Z" fill="#ED1E7C"/>
<path d="M181.584 14.3921C177.935 14.4114 174.782 11.3653 174.636 7.31656C174.49 3.39319 177.682 0 181.701 0C185.661 0 188.785 2.90156 189.038 6.8635C189.262 10.4206 186.508 14.3632 181.584 14.3921Z" fill="#4EB7DA"/>
<path d="M168.651 12.7921C172.709 12.7439 175.959 15.8864 175.988 19.9158C176.008 23.5115 173.157 27.0878 168.7 27.0975C164.72 27.1071 161.586 23.9645 161.528 19.8773C161.479 16.1274 164.992 12.5704 168.651 12.7921Z" fill="#F0422B"/>
<path d="M194.692 12.7926C198.808 12.7637 201.981 15.9544 202 20.032C202.01 23.6855 198.983 27.1654 194.536 27.1172C190.673 27.069 187.617 23.8879 187.549 19.8392C187.491 15.9544 191.16 12.5709 194.692 12.8022V12.7926Z" fill="#87C635"/>
<path d="M86.9188 67.102C86.4225 67.5069 86.0138 67.8057 85.6538 68.1527C84.5347 69.2131 83.1723 69.724 81.6737 69.8686C80.0389 70.0229 78.3651 70.1 76.8081 69.5119C73.8109 68.3841 71.8647 66.2248 71.1057 63.1497C70.1131 59.101 71.9717 54.821 75.7182 52.922C79.3091 51.1097 82.7928 51.2543 86.3252 54.4354C86.4517 54.5511 86.5491 54.7631 86.7631 54.7053C87.0259 54.6282 86.9091 54.3679 86.9383 54.1944C86.9967 53.8763 87.0453 53.5582 87.0648 53.2401C87.1135 52.3628 86.9675 52.2954 88.145 52.2857C89.4198 52.2665 89.41 52.2761 89.4197 53.5389C89.4295 58.754 89.4392 63.9787 89.4684 69.1938C89.4684 69.6758 89.303 69.8397 88.8359 69.8204C88.3299 69.8011 87.8238 69.8011 87.3178 69.8204C86.9772 69.8397 86.9188 69.6855 86.9188 69.3866C86.9383 68.6733 86.9188 67.96 86.9188 67.102ZM73.8109 60.9229C73.7233 64.5764 76.1172 67.2755 80.2432 67.2081C84.1163 67.1406 86.5588 64.6342 86.6074 61.0483C86.6561 57.2984 83.9216 54.7053 80.1167 54.7342C76.3118 54.7631 73.8012 57.2309 73.8109 60.9229Z" fill="white"/>
<path d="M44.3548 69.9939C38.3506 70.2059 34.4971 64.6052 34.9642 60.1613C35.3242 56.7874 38.2825 52.999 41.4354 52.2664C44.3061 51.6012 47.0698 51.7362 49.4053 53.8377C50.719 55.0233 51.5461 56.5271 52.1689 58.1466C52.3538 58.619 52.1787 58.9756 51.7408 59.1974C51.2542 59.4383 50.7579 59.6601 50.2519 59.8529C46.8168 61.1928 43.3817 62.5231 39.8979 63.757C38.7788 64.1522 38.701 64.3161 39.4697 65.1644C41.017 66.8899 43.0119 67.4393 45.2792 67.1019C46.3497 66.9381 47.352 66.5718 48.2375 65.9548C48.5392 65.7427 48.7435 65.7235 48.9771 66.0608C49.2301 66.4175 49.561 66.726 49.8432 67.0634C50.3492 67.6418 50.3492 67.69 49.7459 68.2105C48.5489 69.242 47.1282 69.7721 45.5615 69.9071C45.1625 69.936 44.7538 69.9649 44.3548 69.9939ZM38.0392 60.5566C38.0295 61.4145 38.049 61.4434 38.5745 61.241C40.6277 60.4602 42.6907 59.6986 44.7343 58.8889C45.9312 58.4165 47.1866 58.0791 48.3251 57.4526C48.4905 57.3658 48.7922 57.279 48.5684 57.038C47.8385 56.2765 47.206 55.3897 46.1259 55.033C42.4085 53.8087 38.0879 56.2765 38.0392 60.5566Z" fill="white"/>
<path d="M120.054 69.9265C114.954 69.9265 110.906 66.0417 110.828 61.2508C110.75 56.2092 114.585 51.8135 120.141 51.8135C125.269 51.8135 129.376 55.9489 129.425 61.0291C129.473 65.2031 125.863 70.3121 120.054 69.9265ZM126.408 61.0291C126.437 57.5202 123.683 54.7729 120.092 54.7247C116.365 54.6668 113.66 57.4431 113.66 60.923C113.66 64.6536 116.385 67.2467 120.423 67.2756C123.635 67.2949 126.379 64.4415 126.408 61.0387V61.0291Z" fill="white"/>
<path d="M138.426 62.312C138.426 64.5677 138.407 66.8331 138.436 69.0888C138.436 69.6093 138.28 69.7346 137.794 69.6961C137.21 69.6575 136.616 69.6575 136.032 69.6961C135.594 69.725 135.497 69.5708 135.497 69.1563C135.507 65.1558 135.497 61.1553 135.497 57.1548C135.497 56.5571 135.468 55.9498 135.497 55.3521C135.507 55.034 135.39 54.928 135.079 54.928C134.368 54.928 133.658 54.9184 132.957 54.928C132.626 54.928 132.48 54.8123 132.49 54.4749C132.51 53.7712 132.51 53.0772 132.49 52.3735C132.49 52.0361 132.617 51.9204 132.957 51.93C133.599 51.9493 134.251 51.9108 134.903 51.93C135.361 51.9493 135.507 51.8529 135.507 51.3517C135.517 48.8164 135.322 46.2715 135.633 43.7363C136.295 38.3669 140.285 34.9641 145.472 34.7327C145.725 34.7231 145.861 34.7617 145.841 35.0412C145.841 35.0991 145.841 35.1569 145.841 35.2244C145.932 36.5868 145.322 37.4479 144.012 37.8078C140.489 38.7814 138.426 41.4709 138.416 45.0858C138.416 47.168 138.436 49.2502 138.407 51.3227C138.407 51.8433 138.562 51.9397 139.049 51.93C140.528 51.9011 142.007 51.93 143.477 51.93C143.866 51.93 144.012 52.0457 144.002 52.4409C143.983 53.0193 144.031 53.5977 143.944 54.1761C143.876 54.6195 143.671 54.8316 143.175 54.822C141.822 54.793 140.46 54.8412 139.107 54.8027C138.572 54.7834 138.378 54.8798 138.387 55.4678C138.426 57.7428 138.407 60.0274 138.407 62.312H138.426Z" fill="white"/>
<path d="M60.0803 62.2824C60.0803 60.0267 60.0706 57.7613 60.0901 55.5056C60.0901 55.0622 59.9733 54.908 59.5159 54.9176C58.5915 54.9465 57.6573 54.9176 56.7231 54.9369C56.2754 54.9465 56.11 54.8019 56.1489 54.3489C56.1879 53.8283 56.1781 53.3078 56.1489 52.7872C56.1197 52.3245 56.2657 52.1317 56.762 52.151C57.7156 52.1703 58.6596 52.1317 59.6132 52.151C59.9636 52.151 60.0609 52.0642 60.0609 51.7172C60.0609 48.3626 60.0803 44.9983 60.0609 41.6437C60.0609 41.0749 60.1484 40.7857 60.8102 40.8629C61.3259 40.9303 61.8611 40.9014 62.3866 40.8629C62.8148 40.8339 62.9316 40.9978 62.9316 41.4123C62.9316 44.7091 62.9608 48.0059 62.9316 51.3027C62.9316 51.804 63.0483 51.9389 63.5544 51.9293C64.8875 51.8907 66.2207 51.9293 67.5539 51.91C67.9042 51.91 68.0015 52.016 67.9918 52.3534C67.9723 53.0475 67.9723 53.7512 67.9918 54.4549C68.0112 54.8405 67.8361 54.9272 67.4955 54.9272C66.2012 54.9272 64.907 54.9658 63.6127 54.9562C63.1457 54.9562 62.99 55.0526 62.99 55.5442C62.9997 59.7857 62.99 64.0175 62.99 68.259C62.99 69.2101 62.5164 69.6857 61.5692 69.6857C60.622 69.6857 60.1193 69.1973 60.0609 68.2205C60.0609 67.2179 60.0414 66.225 60.0317 65.2225C60.0317 64.2392 60.0317 63.2656 60.0317 62.2824C60.0414 62.2824 60.0511 62.2824 60.0706 62.2824H60.0803Z" fill="white"/>
<path d="M154.473 62.2822C154.473 64.538 154.453 66.8033 154.492 69.059C154.492 69.6181 154.327 69.7434 153.811 69.7048C153.266 69.6663 152.721 69.6663 152.176 69.7048C151.68 69.7434 151.534 69.6085 151.534 69.0879C151.553 64.6247 151.534 60.1711 151.553 55.7079C151.553 55.1585 151.495 54.8886 150.823 54.9464C149.918 55.0139 149.004 54.9271 148.099 54.9368C147.729 54.9368 147.602 54.8211 147.622 54.4451C147.651 53.8668 147.651 53.2884 147.622 52.71C147.602 52.3148 147.739 52.1702 148.128 52.1798C149.082 52.1894 150.026 52.1509 150.979 52.1798C151.446 52.1991 151.544 52.0448 151.544 51.6111C151.524 48.2275 151.544 44.8536 151.524 41.47C151.524 41.0073 151.631 40.8435 152.118 40.8724C152.682 40.9109 153.256 40.9206 153.811 40.8724C154.307 40.8338 154.453 40.9688 154.453 41.4797C154.424 44.7572 154.453 48.0347 154.424 51.3219C154.424 51.8328 154.57 51.9484 155.066 51.9388C156.341 51.9099 157.616 51.9677 158.891 51.9581C159.329 51.9581 159.445 52.1412 159.436 52.5365C159.416 53.1341 159.406 53.7414 159.445 54.3391C159.475 54.7247 159.329 54.8211 158.969 54.8115C157.655 54.8018 156.341 54.8307 155.027 54.8115C154.57 54.8115 154.444 54.9271 154.453 55.3802C154.473 57.6841 154.463 59.9784 154.463 62.2822H154.473Z" fill="white"/>
<path d="M100.786 69.9073C98.8006 70.0134 96.9809 69.5603 95.4142 68.2782C95.132 68.0469 95.0541 67.9408 95.3461 67.6516C95.7353 67.2757 96.0759 66.8515 96.397 66.4178C96.689 66.0322 96.9809 65.9936 97.3799 66.2442C98.3335 66.8419 99.3942 67.1407 100.523 67.2661C102.382 67.4685 103.939 65.9068 103.608 64.1717C103.511 63.6415 103.199 63.2656 102.761 62.986C101.808 62.3691 100.757 61.9642 99.657 61.6557C99.0536 61.4822 98.4795 61.2509 97.9248 60.952C94.5676 59.1012 94.986 54.5127 98.0416 52.739C100.367 51.3894 103.618 51.7846 105.583 53.6355C105.797 53.8379 105.817 53.9825 105.622 54.1753C105.612 54.1849 105.593 54.2042 105.583 54.2235C104.591 55.5827 104.591 55.573 102.956 55.1296C102.372 54.9754 101.778 54.8308 101.185 54.7344C99.5207 54.4741 98.3433 55.5827 98.5865 57.1443C98.6839 57.7323 99.0342 58.1083 99.5207 58.4071C100.572 59.053 101.701 59.535 102.849 59.9784C104.172 60.4893 105.33 61.2027 106.05 62.4944C106.683 63.6222 106.8 64.7886 106.449 65.9743C106.06 67.295 105.359 68.4614 104.172 69.2808C103.549 69.7049 102.859 69.8881 102.119 69.917C101.671 69.9363 101.233 69.917 100.786 69.917V69.9073Z" fill="white"/>
</svg>
